<?xml version="1.0" encoding="utf-8"?>
<!-- Generator: Adobe Illustrator 20.0.0, SVG Export Plug-In . SVG Version: 6.00 Build 0)  -->
<svg version="1.2" baseProfile="tiny" id="Layer_1" xmlns="http://www.w3.org/2000/svg" xmlns:xlink="http://www.w3.org/1999/xlink"
	 x="0px" y="0px" viewBox="0 0 24 24" xml:space="preserve">
<g>
	<path fill="#FFFFFF" d="M21.9,11.6l-5.6-3.5c-0.3-0.2-0.8-0.1-1,0.2c-0.2,0.3-0.1,0.8,0.2,1l4.6,2.9l-4.6,2.7
		c-0.3,0.2-0.4,0.6-0.2,1c0.1,0.2,0.4,0.3,0.6,0.3c0.1,0,0.2,0,0.4-0.1l5.6-3.3c0.2-0.1,0.3-0.4,0.3-0.6
		C22.2,12,22.1,11.7,21.9,11.6z"/>
	<path fill="#FFFFFF" d="M8.4,14.9L3.9,12l4.6-2.7c0.3-0.2,0.4-0.6,0.2-1C8.5,8,8,7.9,7.7,8.1l-5.6,3.3c-0.2,0.1-0.3,0.4-0.3,0.6
		c0,0.2,0.1,0.5,0.3,0.6l5.6,3.5c0.1,0.1,0.2,0.1,0.4,0.1c0.2,0,0.5-0.1,0.6-0.3C8.9,15.5,8.8,15.1,8.4,14.9z"/>
	<path fill="#FFFFFF" d="M14,5.9c-0.4-0.1-0.9,0.1-1.1,0.6L9.6,17c-0.1,0.4,0.1,0.9,0.6,1.1c0.1,0,0.2,0,0.3,0
		c0.4,0,0.7-0.2,0.8-0.6L14.5,7C14.7,6.5,14.4,6.1,14,5.9z"/>
</g>
</svg>
