<?xml version="1.0" encoding="utf-8"?>
<!-- Generator: Adobe Illustrator 20.0.0, SVG Export Plug-In . SVG Version: 6.00 Build 0)  -->
<svg version="1.2" baseProfile="tiny" id="Layer_1" xmlns="http://www.w3.org/2000/svg" xmlns:xlink="http://www.w3.org/1999/xlink"
	 x="0px" y="0px" viewBox="0 0 24 24" xml:space="preserve">
<g>
	<circle fill="#FFFFFF" cx="19.1" cy="16.5" r="1.2"/>
	<circle fill="#FFFFFF" cx="4.9" cy="15.1" r="1.2"/>
	<circle fill="#FFFFFF" cx="6.6" cy="4" r="1.2"/>
	<path fill="#FFFFFF" d="M8.5,6.5L8,5.6C7.9,5.4,7.6,5.3,7.4,5.4C7.3,5.5,7.2,5.8,7.3,5.9l0.4,0.9C7.8,7,7.9,7,8,7
		c0.1,0,0.1,0,0.2-0.1C8.5,6.9,8.6,6.6,8.5,6.5z"/>
	<path fill="#FFFFFF" d="M8.9,9C9,9.2,9.1,9.2,9.3,9.2c0.1,0,0.1,0,0.2-0.1C9.6,9,9.7,8.7,9.6,8.6L9.2,7.7C9,7.5,8.8,7.4,8.6,7.6
		C8.4,7.7,8.3,8,8.4,8.1L8.9,9z"/>
	<path fill="#FFFFFF" d="M14.9,13.7l-1-0.5c-0.2-0.1-0.4,0-0.5,0.2c-0.1,0.2,0,0.4,0.2,0.5l1,0.5c0.1,0,0.2,0.1,0.2,0.1
		c0.2,0,0.3-0.1,0.4-0.2C15.2,14,15.1,13.7,14.9,13.7z"/>
	<path fill="#FFFFFF" d="M17.3,15l-1-0.5c-0.2-0.1-0.4,0-0.5,0.2c-0.1,0.2,0,0.4,0.2,0.5l1,0.5c0.1,0,0.2,0.1,0.2,0.1
		c0.2,0,0.3-0.1,0.4-0.2C17.5,15.3,17.4,15.2,17.3,15z"/>
	<path fill="#FFFFFF" d="M7.7,13.1l-1,0.5c-0.2,0.1-0.3,0.4-0.2,0.5s0.2,0.2,0.4,0.2c0.1,0,0.2,0,0.2-0.1l1-0.5
		c0.2-0.1,0.3-0.4,0.2-0.5C8.1,13.1,7.9,13,7.7,13.1z"/>
	<path fill="#FFFFFF" d="M19.7,4.4c0-1-0.8-1.8-1.8-1.8c-1,0-1.8,0.8-1.8,1.8c0,0.4,0.1,0.6,0.3,0.9l-4.1,4.4
		c-0.4-0.3-0.8-0.4-1.3-0.4c-1.4,0-2.5,1.1-2.5,2.5c0,1.4,1.1,2.5,2.5,2.5h0.1l1,3.6c-0.5,0.4-0.9,0.9-0.9,1.6c0,1,0.8,1.8,1.8,1.8
		c1,0,1.8-0.8,1.8-1.8c0-1-0.8-1.8-1.8-1.8l-1-3.5c0.8-0.4,1.4-1.2,1.4-2.2c0-0.5-0.2-1-0.4-1.4l4.1-4.4c0.3,0.1,0.5,0.2,0.8,0.2
		C18.9,6.3,19.7,5.5,19.7,4.4z M12.1,18.8c0.2-0.2,0.4-0.4,0.7-0.4c0.1,0,0.2,0,0.4,0.1c0.4,0.2,0.7,0.5,0.7,1c0,0.5-0.4,1-1,1
		c-0.5,0-1-0.4-1-1C11.8,19.3,11.9,19,12.1,18.8z M12.3,12.2c-0.1,0.3-0.2,0.5-0.4,0.7L11.7,13c-0.3,0.2-0.5,0.3-0.9,0.3
		c-0.1,0-0.2,0-0.2,0c-0.3-0.1-0.6-0.2-0.8-0.4c-0.2-0.2-0.4-0.4-0.4-0.7c0-0.1,0-0.2,0-0.3c0-0.4,0.2-0.8,0.4-1
		c0.2-0.2,0.4-0.4,0.7-0.4c0.1,0,0.2,0,0.3,0c0.2,0,0.4,0,0.5,0.1c0.4,0.2,0.6,0.4,0.8,0.8c0.1,0.2,0.1,0.4,0.1,0.5
		C12.4,12,12.3,12.1,12.3,12.2z M18,5.5c-0.1,0-0.1,0-0.2,0c-0.4-0.1-0.7-0.4-0.8-0.8c0-0.1,0-0.2,0-0.3c0-0.5,0.4-1,1-1s1,0.4,1,1
		C18.9,5.1,18.5,5.5,18,5.5z"/>
</g>
</svg>
