<?xml version="1.0" encoding="utf-8"?>
<!-- Generator: Adobe Illustrator 20.0.0, SVG Export Plug-In . SVG Version: 6.00 Build 0)  -->
<svg version="1.2" baseProfile="tiny" id="Layer_1" xmlns="http://www.w3.org/2000/svg" xmlns:xlink="http://www.w3.org/1999/xlink"
	 x="0px" y="0px" viewBox="0 0 24 24" xml:space="preserve">
<path fill="#FFFFFF" d="M18.6,6.1c0-1.9-3.3-2.9-6.6-2.9c-3.3,0-6.6,1-6.6,2.9c0,0,0,0,0,0c0,0,0,0,0,0V10V14v3.9
	c0,1.9,3.3,2.9,6.6,2.9c3.3,0,6.6-1,6.6-2.9V14V10V6.1C18.6,6.1,18.6,6.1,18.6,6.1C18.6,6.1,18.6,6.1,18.6,6.1z M17.3,17.9
	c0,0.7-2.1,1.7-5.3,1.7c-3.2,0-5.3-1-5.3-1.7v-2.2c1.3,0.8,3.3,1.1,5.3,1.1c2,0,4.1-0.4,5.3-1.1V17.9z M17.3,14
	c0,0.7-2.1,1.7-5.3,1.7c-3.2,0-5.3-1-5.3-1.7v-2.2C7.9,12.6,10,13,12,13c2,0,4.1-0.4,5.3-1.1V14z M17.3,10c0,0.7-2.1,1.7-5.3,1.7
	c-3.2,0-5.3-1-5.3-1.7V7.9C7.9,8.6,10,9,12,9c2,0,4.1-0.4,5.3-1.1V10z M12,7.8c-3.2,0-5.3-1-5.3-1.7c0-0.7,2.1-1.7,5.3-1.7
	c3.2,0,5.3,1,5.3,1.7C17.3,6.8,15.2,7.8,12,7.8z"/>
</svg>
