<?xml version="1.0" encoding="utf-8"?>
<!-- Generator: Adobe Illustrator 20.0.0, SVG Export Plug-In . SVG Version: 6.00 Build 0)  -->
<svg version="1.2" baseProfile="tiny" id="Layer_1" xmlns="http://www.w3.org/2000/svg" xmlns:xlink="http://www.w3.org/1999/xlink"
	 x="0px" y="0px" viewBox="0 0 24 24" xml:space="preserve">
<g>
	<path fill="#FFFFFF" d="M20.6,6.8l-1.1-0.3c-0.1-0.2-0.1-0.4-0.2-0.5l0.6-1c0.2-0.3,0.3-0.7,0-0.9c-0.3-0.3-0.6-0.2-0.9,0l-1,0.6
		c-0.2-0.1-0.3-0.2-0.5-0.2l-0.3-1.1C17,3,16.9,2.7,16.5,2.7c-0.4,0-0.6,0.3-0.7,0.7l-0.3,1.1c-0.2,0.1-0.3,0.1-0.5,0.2l-1-0.6
		c-0.3-0.2-0.7-0.3-0.9,0c-0.3,0.3-0.2,0.6,0,0.9l0.6,1c-0.1,0.1-0.1,0.3-0.2,0.4l-1.1,0.3c-0.4,0.1-0.7,0.3-0.7,0.7
		c0,0.4,0.3,0.6,0.7,0.7l1.1,0.3c0,0.2,0.1,0.3,0.2,0.4l-0.6,1c-0.2,0.3-0.3,0.7,0,0.9c0.3,0.3,0.6,0.2,0.9,0l1-0.6
		c0.1,0.1,0.3,0.1,0.5,0.2l0.3,1.1c0.1,0.4,0.3,0.7,0.7,0.7c0.4,0,0.6-0.3,0.7-0.7l0.3-1.1c0.2-0.1,0.3-0.1,0.5-0.2l1,0.6
		c0.3,0.2,0.7,0.3,0.9,0c0.3-0.3,0.2-0.6,0-0.9l-0.6-1c0.1-0.2,0.2-0.3,0.2-0.5l1.1-0.3c0.4-0.1,0.7-0.3,0.7-0.7
		C21.2,7.1,20.9,6.9,20.6,6.8z M16.5,8.8c-0.7,0-1.3-0.6-1.3-1.3c0-0.7,0.6-1.3,1.3-1.3c0.7,0,1.3,0.6,1.3,1.3
		C17.8,8.2,17.2,8.8,16.5,8.8z"/>
	<path fill="#FFFFFF" d="M14.5,14.4l-1.1-0.3c0-0.2-0.1-0.3-0.1-0.5l0.8-0.8c0.3-0.3,0.4-0.6,0.2-0.9c-0.2-0.3-0.6-0.3-0.9-0.2
		L12.3,12c-0.1-0.1-0.2-0.2-0.3-0.3l0.3-1.1c0.1-0.4,0.1-0.7-0.2-0.9c-0.3-0.2-0.6,0-0.9,0.2l-0.8,0.8c-0.1,0-0.3-0.1-0.5-0.1
		L9.6,9.5C9.5,9.2,9.3,8.9,9,8.9c-0.4,0-0.6,0.3-0.7,0.7L8,10.6c-0.2,0-0.3,0.1-0.5,0.1L6.8,9.9C6.5,9.7,6.2,9.5,5.9,9.7
		c-0.3,0.2-0.3,0.6-0.2,0.9l0.3,1.1c-0.1,0.1-0.2,0.2-0.3,0.3l-1.1-0.3c-0.4-0.1-0.7-0.1-0.9,0.2c-0.2,0.3,0,0.6,0.2,0.9l0.8,0.8
		c0,0.1-0.1,0.3-0.1,0.5l-1.1,0.3c-0.4,0.1-0.7,0.3-0.7,0.7c0,0.4,0.3,0.6,0.7,0.7L4.5,16c0,0.2,0.1,0.3,0.1,0.5l-0.8,0.8
		c-0.3,0.3-0.4,0.6-0.2,0.9c0.2,0.3,0.6,0.3,0.9,0.2l1.1-0.3c0.1,0.1,0.2,0.2,0.3,0.3l-0.3,1.1c-0.1,0.4-0.1,0.7,0.2,0.9
		c0.3,0.2,0.6,0,0.9-0.2l0.8-0.8c0.1,0,0.3,0.1,0.5,0.1l0.3,1.1C8.4,21,8.6,21.3,9,21.3c0.4,0,0.6-0.3,0.7-0.7l0.3-1.1
		c0.2,0,0.3-0.1,0.5-0.1l0.8,0.8c0.3,0.3,0.6,0.4,0.9,0.2c0.3-0.2,0.3-0.6,0.2-0.9L12,18.4c0.1-0.1,0.2-0.2,0.3-0.3l1.1,0.3
		c0.4,0.1,0.7,0.1,0.9-0.2c0.2-0.3,0-0.6-0.2-0.9l-0.8-0.8c0-0.1,0.1-0.3,0.1-0.5l1.1-0.3c0.4-0.1,0.7-0.3,0.7-0.7
		C15.1,14.7,14.8,14.5,14.5,14.4z M9,16.9c-1,0-1.9-0.8-1.9-1.9c0-1,0.8-1.9,1.9-1.9c1,0,1.9,0.8,1.9,1.9C10.8,16.1,10,16.9,9,16.9z
		"/>
</g>
</svg>
